<mxfile host="65bd71144e">
    <diagram id="BTYcjEdfxh9TkqYMeImK" name="Page-3">
        <mxGraphModel dx="1580" dy="753" grid="1" gridSize="10" guides="1" tooltips="1" connect="1" arrows="1" fold="1" page="1" pageScale="1" pageWidth="850" pageHeight="1100" math="0" shadow="0">
            <root>
                <mxCell id="0"/>
                <mxCell id="1" parent="0"/>
                <mxCell id="WWtd9145uoikllgOCISN-29" style="edgeStyle=none;html=1;entryX=0.5;entryY=0;entryDx=0;entryDy=0;" parent="1" source="WWtd9145uoikllgOCISN-1" target="WWtd9145uoikllgOCISN-25" edge="1">
                    <mxGeometry relative="1" as="geometry"/>
                </mxCell>
                <mxCell id="WWtd9145uoikllgOCISN-1" value="" style="shape=actor;whiteSpace=wrap;html=1;" parent="1" vertex="1">
                    <mxGeometry x="85" y="70" width="40" height="60" as="geometry"/>
                </mxCell>
                <mxCell id="WWtd9145uoikllgOCISN-2" value="New Patient." style="text;html=1;strokeColor=none;fillColor=none;align=center;verticalAlign=middle;whiteSpace=wrap;rounded=0;" parent="1" vertex="1">
                    <mxGeometry x="75" y="40" width="60" height="30" as="geometry"/>
                </mxCell>
                <mxCell id="WWtd9145uoikllgOCISN-9" style="edgeStyle=none;html=1;entryX=0;entryY=0.5;entryDx=0;entryDy=0;" parent="1" source="WWtd9145uoikllgOCISN-5" target="WWtd9145uoikllgOCISN-10" edge="1">
                    <mxGeometry relative="1" as="geometry">
                        <mxPoint x="190" y="370" as="targetPoint"/>
                    </mxGeometry>
                </mxCell>
                <mxCell id="WWtd9145uoikllgOCISN-5" value="&lt;font color=&quot;#ffffff&quot;&gt;Recepcionista&lt;br&gt;/Enfermero&lt;/font&gt;" style="shape=umlActor;verticalLabelPosition=bottom;verticalAlign=top;html=1;outlineConnect=0;" parent="1" vertex="1">
                    <mxGeometry x="55" y="392.5" width="30" height="60" as="geometry"/>
                </mxCell>
                <mxCell id="WWtd9145uoikllgOCISN-13" style="edgeStyle=none;html=1;entryX=0;entryY=0.5;entryDx=0;entryDy=0;" parent="1" source="WWtd9145uoikllgOCISN-10" target="WWtd9145uoikllgOCISN-12" edge="1">
                    <mxGeometry relative="1" as="geometry"/>
                </mxCell>
                <mxCell id="WWtd9145uoikllgOCISN-48" style="edgeStyle=none;html=1;entryX=0.5;entryY=0;entryDx=0;entryDy=0;entryPerimeter=0;strokeColor=#CCCCCC;fontColor=#FFFFFF;" parent="1" source="WWtd9145uoikllgOCISN-10" target="WWtd9145uoikllgOCISN-47" edge="1">
                    <mxGeometry relative="1" as="geometry"/>
                </mxCell>
                <mxCell id="WWtd9145uoikllgOCISN-10" value="Data Patient&lt;br&gt;+&amp;nbsp; future prescriptions." style="shape=internalStorage;whiteSpace=wrap;html=1;backgroundOutline=1;" parent="1" vertex="1">
                    <mxGeometry x="200" y="370" width="175" height="105" as="geometry"/>
                </mxCell>
                <mxCell id="6" value="" style="edgeStyle=none;html=1;" edge="1" parent="1" source="WWtd9145uoikllgOCISN-12" target="5">
                    <mxGeometry relative="1" as="geometry"/>
                </mxCell>
                <mxCell id="WWtd9145uoikllgOCISN-12" value="Looks into the clinic" style="shape=process;whiteSpace=wrap;html=1;backgroundOutline=1;" parent="1" vertex="1">
                    <mxGeometry x="430" y="392.5" width="120" height="60" as="geometry"/>
                </mxCell>
                <mxCell id="WWtd9145uoikllgOCISN-24" value="" style="edgeStyle=none;html=1;" parent="1" source="WWtd9145uoikllgOCISN-14" target="WWtd9145uoikllgOCISN-23" edge="1">
                    <mxGeometry relative="1" as="geometry"/>
                </mxCell>
                <mxCell id="4" style="edgeStyle=none;html=1;entryX=0.75;entryY=0;entryDx=0;entryDy=0;" edge="1" parent="1" source="WWtd9145uoikllgOCISN-14" target="WWtd9145uoikllgOCISN-10">
                    <mxGeometry relative="1" as="geometry">
                        <Array as="points">
                            <mxPoint x="331" y="260"/>
                        </Array>
                    </mxGeometry>
                </mxCell>
                <mxCell id="WWtd9145uoikllgOCISN-14" value="Doctor available" style="rhombus;whiteSpace=wrap;html=1;" parent="1" vertex="1">
                    <mxGeometry x="450" y="220" width="80" height="80" as="geometry"/>
                </mxCell>
                <mxCell id="WWtd9145uoikllgOCISN-22" value="Yes" style="text;html=1;strokeColor=none;fillColor=none;align=center;verticalAlign=middle;whiteSpace=wrap;rounded=0;" parent="1" vertex="1">
                    <mxGeometry x="600" y="260" width="60" height="30" as="geometry"/>
                </mxCell>
                <mxCell id="WWtd9145uoikllgOCISN-37" value="" style="edgeStyle=none;html=1;" parent="1" source="WWtd9145uoikllgOCISN-23" target="WWtd9145uoikllgOCISN-36" edge="1">
                    <mxGeometry relative="1" as="geometry"/>
                </mxCell>
                <mxCell id="WWtd9145uoikllgOCISN-23" value="Assigned an appointment" style="whiteSpace=wrap;html=1;" parent="1" vertex="1">
                    <mxGeometry x="430" y="140" width="120" height="40" as="geometry"/>
                </mxCell>
                <mxCell id="WWtd9145uoikllgOCISN-32" style="edgeStyle=none;html=1;entryX=0.5;entryY=0;entryDx=0;entryDy=0;entryPerimeter=0;" parent="1" source="WWtd9145uoikllgOCISN-25" target="WWtd9145uoikllgOCISN-5" edge="1">
                    <mxGeometry relative="1" as="geometry"/>
                </mxCell>
                <mxCell id="WWtd9145uoikllgOCISN-25" value="Patient Data" style="swimlane;fontStyle=0;childLayout=stackLayout;horizontal=1;startSize=30;horizontalStack=0;resizeParent=1;resizeParentMax=0;resizeLast=0;collapsible=1;marginBottom=0;whiteSpace=wrap;html=1;" parent="1" vertex="1">
                    <mxGeometry x="35" y="180" width="140" height="150" as="geometry"/>
                </mxCell>
                <mxCell id="WWtd9145uoikllgOCISN-26" value="1. Name" style="text;strokeColor=none;fillColor=none;align=left;verticalAlign=middle;spacingLeft=4;spacingRight=4;overflow=hidden;points=[[0,0.5],[1,0.5]];portConstraint=eastwest;rotatable=0;whiteSpace=wrap;html=1;" parent="WWtd9145uoikllgOCISN-25" vertex="1">
                    <mxGeometry y="30" width="140" height="30" as="geometry"/>
                </mxCell>
                <mxCell id="WWtd9145uoikllgOCISN-27" value="2. Date of appointment" style="text;strokeColor=none;fillColor=none;align=left;verticalAlign=middle;spacingLeft=4;spacingRight=4;overflow=hidden;points=[[0,0.5],[1,0.5]];portConstraint=eastwest;rotatable=0;whiteSpace=wrap;html=1;" parent="WWtd9145uoikllgOCISN-25" vertex="1">
                    <mxGeometry y="60" width="140" height="30" as="geometry"/>
                </mxCell>
                <mxCell id="WWtd9145uoikllgOCISN-28" value="3. Sickness" style="text;strokeColor=none;fillColor=none;align=left;verticalAlign=middle;spacingLeft=4;spacingRight=4;overflow=hidden;points=[[0,0.5],[1,0.5]];portConstraint=eastwest;rotatable=0;whiteSpace=wrap;html=1;" parent="WWtd9145uoikllgOCISN-25" vertex="1">
                    <mxGeometry y="90" width="140" height="30" as="geometry"/>
                </mxCell>
                <mxCell id="WWtd9145uoikllgOCISN-30" value="4. The clinic" style="text;strokeColor=none;fillColor=none;align=left;verticalAlign=middle;spacingLeft=4;spacingRight=4;overflow=hidden;points=[[0,0.5],[1,0.5]];portConstraint=eastwest;rotatable=0;whiteSpace=wrap;html=1;" parent="WWtd9145uoikllgOCISN-25" vertex="1">
                    <mxGeometry y="120" width="140" height="30" as="geometry"/>
                </mxCell>
                <mxCell id="WWtd9145uoikllgOCISN-35" style="edgeStyle=none;html=1;entryX=0.5;entryY=1;entryDx=0;entryDy=0;" parent="1" source="WWtd9145uoikllgOCISN-34" target="WWtd9145uoikllgOCISN-12" edge="1">
                    <mxGeometry relative="1" as="geometry"/>
                </mxCell>
                <mxCell id="WWtd9145uoikllgOCISN-34" value="Has the clinic any doctor avaiblable?" style="shape=callout;whiteSpace=wrap;html=1;perimeter=calloutPerimeter;" parent="1" vertex="1">
                    <mxGeometry x="405" y="490" width="170" height="90" as="geometry"/>
                </mxCell>
                <mxCell id="WWtd9145uoikllgOCISN-38" style="edgeStyle=none;html=1;" parent="1" source="WWtd9145uoikllgOCISN-36" target="WWtd9145uoikllgOCISN-10" edge="1">
                    <mxGeometry relative="1" as="geometry"/>
                </mxCell>
                <mxCell id="WWtd9145uoikllgOCISN-36" value="Doctor writes presciprtion" style="whiteSpace=wrap;html=1;" parent="1" vertex="1">
                    <mxGeometry x="227.5" y="140" width="120" height="40" as="geometry"/>
                </mxCell>
                <mxCell id="WWtd9145uoikllgOCISN-39" value="Registered patient." style="text;html=1;strokeColor=none;fillColor=none;align=center;verticalAlign=middle;whiteSpace=wrap;rounded=0;" parent="1" vertex="1">
                    <mxGeometry x="45" y="590" width="60" height="30" as="geometry"/>
                </mxCell>
                <mxCell id="WWtd9145uoikllgOCISN-40" value="" style="shape=actor;whiteSpace=wrap;html=1;" parent="1" vertex="1">
                    <mxGeometry x="55" y="530" width="40" height="60" as="geometry"/>
                </mxCell>
                <mxCell id="WWtd9145uoikllgOCISN-49" style="edgeStyle=none;html=1;entryX=0.9;entryY=0.5;entryDx=0;entryDy=0;entryPerimeter=0;strokeColor=#CCCCCC;fontColor=#FFFFFF;" parent="1" source="WWtd9145uoikllgOCISN-47" target="WWtd9145uoikllgOCISN-40" edge="1">
                    <mxGeometry relative="1" as="geometry"/>
                </mxCell>
                <mxCell id="WWtd9145uoikllgOCISN-47" value="&lt;font color=&quot;#ffffff&quot;&gt;Receptionist&lt;/font&gt;" style="shape=umlActor;verticalLabelPosition=bottom;verticalAlign=top;html=1;outlineConnect=0;" parent="1" vertex="1">
                    <mxGeometry x="272.5" y="530" width="30" height="60" as="geometry"/>
                </mxCell>
                <mxCell id="2" value="No" style="text;html=1;strokeColor=none;fillColor=none;align=center;verticalAlign=middle;whiteSpace=wrap;rounded=0;" parent="1" vertex="1">
                    <mxGeometry x="345" y="270" width="60" height="30" as="geometry"/>
                </mxCell>
                <mxCell id="8" style="edgeStyle=none;html=1;entryX=1;entryY=0.5;entryDx=0;entryDy=0;" edge="1" parent="1" source="5" target="WWtd9145uoikllgOCISN-14">
                    <mxGeometry relative="1" as="geometry">
                        <Array as="points">
                            <mxPoint x="700" y="260"/>
                        </Array>
                    </mxGeometry>
                </mxCell>
                <mxCell id="5" value="Is any&amp;nbsp; clinic open?" style="rhombus;whiteSpace=wrap;html=1;" vertex="1" parent="1">
                    <mxGeometry x="640" y="370" width="120" height="110" as="geometry"/>
                </mxCell>
            </root>
        </mxGraphModel>
    </diagram>
</mxfile>